<svg xmlns="http://www.w3.org/2000/svg" xmlns:xlink="http://www.w3.org/1999/xlink" viewBox="0 0 2746.7 892.11"><defs><style>.cls-1{fill:url(#radial-gradient);}.cls-2{fill:url(#radial-gradient-2);}.cls-3{fill:url(#radial-gradient-3);}.cls-4{fill:url(#radial-gradient-4);}.cls-5{fill:url(#radial-gradient-5);}.cls-6{fill:url(#radial-gradient-6);}.cls-7{fill:url(#radial-gradient-7);}.cls-8{fill:url(#radial-gradient-8);}.cls-9{fill:url(#radial-gradient-9);}.cls-10{fill:url(#radial-gradient-10);}.cls-11{fill:url(#radial-gradient-11);}.cls-12{fill:url(#radial-gradient-12);}.cls-13{fill:url(#radial-gradient-13);}.cls-14{fill:url(#radial-gradient-14);}.cls-15{fill:url(#radial-gradient-15);}.cls-16{fill:url(#radial-gradient-16);}.cls-17{fill:url(#radial-gradient-17);}.cls-18{fill:url(#radial-gradient-18);}.cls-19{fill:url(#radial-gradient-19);}.cls-20{fill:url(#radial-gradient-20);}.cls-21{fill:url(#radial-gradient-21);}.cls-22{fill:url(#radial-gradient-22);}.cls-23{fill:url(#radial-gradient-23);}.cls-24{fill:url(#radial-gradient-24);}.cls-25{fill:url(#radial-gradient-25);}.cls-26{fill:url(#radial-gradient-26);}.cls-27{fill:url(#radial-gradient-27);}.cls-28{fill:url(#radial-gradient-28);}.cls-29{fill:url(#radial-gradient-29);}.cls-30{fill:url(#radial-gradient-30);}.cls-31{fill:url(#radial-gradient-31);}.cls-32{fill:url(#radial-gradient-32);}.cls-33{fill:url(#radial-gradient-33);}.cls-34{fill:url(#radial-gradient-34);}.cls-35{fill:url(#radial-gradient-35);}.cls-36{fill:url(#radial-gradient-36);}.cls-37{fill:url(#radial-gradient-37);}.cls-38{fill:url(#radial-gradient-38);}.cls-39{fill:url(#radial-gradient-39);}.cls-40{fill:url(#radial-gradient-40);}.cls-41{fill:url(#radial-gradient-41);}.cls-42{fill:url(#radial-gradient-42);}.cls-43{fill:url(#radial-gradient-43);}.cls-44{fill:url(#radial-gradient-44);}.cls-45{fill:url(#radial-gradient-45);}.cls-46{fill:url(#radial-gradient-46);}.cls-47{fill:url(#radial-gradient-47);}</style><radialGradient id="radial-gradient" cx="1390.03" cy="575.05" r="87.85" gradientUnits="userSpaceOnUse"><stop offset="0" stop-color="#fff" stop-opacity="0.8"/><stop offset="0.39" stop-color="#fff" stop-opacity="0.5"/><stop offset="1" stop-color="#fff" stop-opacity="0"/></radialGradient><radialGradient id="radial-gradient-2" cx="1171.11" cy="90.2" r="90.2" xlink:href="#radial-gradient"/><radialGradient id="radial-gradient-3" cx="1341.32" cy="394.59" r="33.3" xlink:href="#radial-gradient"/><radialGradient id="radial-gradient-4" cx="992.63" cy="173.63" r="33.3" xlink:href="#radial-gradient"/><radialGradient id="radial-gradient-5" cx="1033.34" cy="274.99" r="22.52" xlink:href="#radial-gradient"/><radialGradient id="radial-gradient-6" cx="1762.17" cy="747.25" r="11.01" xlink:href="#radial-gradient"/><radialGradient id="radial-gradient-7" cx="1331.26" cy="665.43" r="22.12" gradientTransform="translate(550.84 0) scale(0.9 1)" xlink:href="#radial-gradient"/><radialGradient id="radial-gradient-8" cx="920.53" cy="829.54" r="35.48" xlink:href="#radial-gradient"/><radialGradient id="radial-gradient-9" cx="765.02" cy="414.59" r="33.3" xlink:href="#radial-gradient"/><radialGradient id="radial-gradient-10" cx="2654.11" cy="627.46" r="14.97" xlink:href="#radial-gradient"/><radialGradient id="radial-gradient-11" cx="2152.06" cy="445.2" r="11.07" xlink:href="#radial-gradient"/><radialGradient id="radial-gradient-12" cx="456.52" cy="739.52" r="55.76" gradientTransform="translate(245.25 -103.49) rotate(17.62)" xlink:href="#radial-gradient"/><radialGradient id="radial-gradient-13" cx="55.76" cy="315.47" r="55.76" gradientTransform="translate(58.18 -4.88) rotate(10.46)" xlink:href="#radial-gradient"/><radialGradient id="radial-gradient-14" cx="1801.2" cy="186.26" r="29.18" xlink:href="#radial-gradient"/><radialGradient id="radial-gradient-15" cx="538.87" cy="651.46" r="26.59" xlink:href="#radial-gradient"/><radialGradient id="radial-gradient-16" cx="615.23" cy="227.23" r="49.76" xlink:href="#radial-gradient"/><radialGradient id="radial-gradient-17" cx="2559.63" cy="736.35" r="26.94" xlink:href="#radial-gradient"/><radialGradient id="radial-gradient-18" cx="821.63" cy="159.58" r="23.31" xlink:href="#radial-gradient"/><radialGradient id="radial-gradient-19" cx="1503.43" cy="832.35" r="27.29" xlink:href="#radial-gradient"/><radialGradient id="radial-gradient-20" cx="462.13" cy="544.58" r="86.93" xlink:href="#radial-gradient"/><radialGradient id="radial-gradient-21" cx="2495.22" cy="627.46" r="14.97" xlink:href="#radial-gradient"/><radialGradient id="radial-gradient-22" cx="2616.87" cy="269.37" r="14.97" xlink:href="#radial-gradient"/><radialGradient id="radial-gradient-23" cx="857.05" cy="667.82" r="66.6" gradientTransform="translate(14.23 -17.87) rotate(1.2)" xlink:href="#radial-gradient"/><radialGradient id="radial-gradient-24" cx="2263.51" cy="689.02" r="44.4" xlink:href="#radial-gradient"/><radialGradient id="radial-gradient-25" cx="1190.32" cy="793.14" r="33.3" xlink:href="#radial-gradient"/><radialGradient id="radial-gradient-26" cx="232.49" cy="417.94" r="24.32" xlink:href="#radial-gradient"/><radialGradient id="radial-gradient-27" cx="2597.9" cy="578.07" r="52.12" xlink:href="#radial-gradient"/><radialGradient id="radial-gradient-28" cx="1211.31" cy="569.55" r="14.97" xlink:href="#radial-gradient"/><radialGradient id="radial-gradient-29" cx="2162.16" cy="773.94" r="115.58" xlink:href="#radial-gradient"/><radialGradient id="radial-gradient-30" cx="1918" cy="259.75" r="36.53" xlink:href="#radial-gradient"/><radialGradient id="radial-gradient-31" cx="1953.99" cy="197.66" r="20.53" gradientTransform="translate(1659.91 -1744.16) rotate(75.61)" xlink:href="#radial-gradient"/><radialGradient id="radial-gradient-32" cx="651.93" cy="291.28" r="16.65" xlink:href="#radial-gradient"/><radialGradient id="radial-gradient-33" cx="1906.33" cy="117.93" r="75.95" xlink:href="#radial-gradient"/><radialGradient id="radial-gradient-34" cx="2514.05" cy="202.65" r="87.85" gradientTransform="translate(1.89 -22.22) rotate(0.51)" xlink:href="#radial-gradient"/><radialGradient id="radial-gradient-35" cx="2454.06" cy="146.59" r="26.19" xlink:href="#radial-gradient"/><radialGradient id="radial-gradient-36" cx="104.8" cy="544.58" r="39.48" gradientTransform="translate(100.58 -9.98) rotate(10.46)" xlink:href="#radial-gradient"/><radialGradient id="radial-gradient-37" cx="1681.79" cy="627.98" r="53.15" xlink:href="#radial-gradient"/><radialGradient id="radial-gradient-38" cx="2324.82" cy="623.22" r="14.97" xlink:href="#radial-gradient"/><radialGradient id="radial-gradient-39" cx="2211.63" cy="608.26" r="7.48" xlink:href="#radial-gradient"/><radialGradient id="radial-gradient-40" cx="1556.32" cy="774.23" r="12.21" xlink:href="#radial-gradient"/><radialGradient id="radial-gradient-41" cx="1454.44" cy="480.35" r="8.22" xlink:href="#radial-gradient"/><radialGradient id="radial-gradient-42" cx="971.27" cy="678.15" r="8.4" xlink:href="#radial-gradient"/><radialGradient id="radial-gradient-43" cx="66.85" cy="407.93" r="9.98" xlink:href="#radial-gradient"/><radialGradient id="radial-gradient-44" cx="2325.11" cy="354.59" r="14.97" xlink:href="#radial-gradient"/><radialGradient id="radial-gradient-45" cx="2240.83" cy="305.48" r="8.14" xlink:href="#radial-gradient"/><radialGradient id="radial-gradient-46" cx="2731.73" cy="217.62" r="14.97" xlink:href="#radial-gradient"/><radialGradient id="radial-gradient-47" cx="2684.73" cy="174.03" r="7.48" xlink:href="#radial-gradient"/></defs><g id="Layer_2" data-name="Layer 2"><g id="_Layer_" data-name="&lt;Layer&gt;"><circle class="cls-1" cx="1390.03" cy="575.05" r="87.85"/><path class="cls-2" d="M1080.91,90.2c72.38-9.84,80.36-17.83,90.2-90.2,9.85,72.37,17.83,80.36,90.21,90.2C1188.94,100,1181,108,1171.11,180.4,1161.27,108,1153.29,100,1080.91,90.2Z"/><path class="cls-3" d="M1308,394.59c26.72-3.64,29.66-6.58,33.3-33.3,3.63,26.72,6.57,29.66,33.29,33.3-26.72,3.63-29.66,6.58-33.29,33.29C1337.68,401.17,1334.74,398.22,1308,394.59Z"/><path class="cls-4" d="M959.33,173.63c26.72-3.64,29.67-6.58,33.3-33.3,3.63,26.72,6.58,29.66,33.3,33.3-26.72,3.63-29.67,6.58-33.3,33.29C989,180.21,986.05,177.26,959.33,173.63Z"/><path class="cls-5" d="M1010.81,275c18.08-2.46,20.07-4.46,22.53-22.53,2.46,18.07,4.45,20.07,22.52,22.53-18.07,2.45-20.06,4.45-22.52,22.52C1030.88,279.44,1028.89,277.44,1010.81,275Z"/><path class="cls-6" d="M1751.16,747.25c8.83-1.2,9.81-2.17,11-11,1.2,8.83,2.17,9.8,11,11-8.83,1.2-9.8,2.18-11,11C1761,749.43,1760,748.45,1751.16,747.25Z"/><ellipse class="cls-7" cx="1750.96" cy="665.43" rx="19.94" ry="22.12"/><path class="cls-8" d="M885.06,829.54c28.46-3.87,31.6-7,35.47-35.48,3.87,28.47,7,31.61,35.48,35.48-28.47,3.87-31.61,7-35.48,35.47C916.66,836.55,913.52,833.41,885.06,829.54Z"/><path class="cls-9" d="M731.72,414.59c26.72-3.64,29.66-6.58,33.3-33.3,3.63,26.72,6.58,29.66,33.3,33.3-26.72,3.63-29.67,6.58-33.3,33.29C761.38,421.17,758.44,418.22,731.72,414.59Z"/><path class="cls-10" d="M2639.14,627.46c12-1.63,13.33-3,15-15,1.63,12,2.95,13.33,15,15-12,1.64-13.33,3-15,15C2652.47,630.42,2651.15,629.1,2639.14,627.46Z"/><path class="cls-11" d="M2141,445.2c8.88-1.2,9.86-2.18,11.07-11.07,1.21,8.89,2.19,9.87,11.07,11.07-8.88,1.21-9.86,2.19-11.07,11.07C2150.85,447.39,2149.87,446.41,2141,445.2Z"/><circle class="cls-12" cx="456.52" cy="739.52" r="55.76" transform="translate(-202.42 172.87) rotate(-17.62)"/><circle class="cls-13" cx="55.76" cy="315.47" r="55.76" transform="translate(-56.33 15.36) rotate(-10.46)"/><path class="cls-14" d="M1772,186.26c23.42-3.18,26-5.76,29.18-29.17,3.19,23.41,5.77,26,29.18,29.17-23.41,3.19-26,5.77-29.18,29.18C1798,192,1795.44,189.45,1772,186.26Z"/><path class="cls-15" d="M512.28,651.46c21.34-2.9,23.69-5.25,26.59-26.59,2.91,21.34,5.26,23.69,26.6,26.59-21.34,2.9-23.69,5.26-26.6,26.6C536,656.72,533.62,654.36,512.28,651.46Z"/><path class="cls-16" d="M565.47,227.23c39.93-5.43,44.33-9.83,49.76-49.76,5.43,39.93,9.84,44.33,49.76,49.76-39.92,5.43-44.33,9.83-49.76,49.76C609.8,237.06,605.4,232.66,565.47,227.23Z"/><path class="cls-17" d="M2532.69,736.35c21.62-2.94,24-5.33,26.95-26.94,2.94,21.61,5.32,24,26.94,26.94-21.62,2.94-24,5.32-26.94,26.94C2556.7,741.67,2554.31,739.29,2532.69,736.35Z"/><path class="cls-18" d="M798.32,159.59C817,157,819.08,155,821.63,136.28c2.54,18.7,4.6,20.76,23.31,23.31-18.71,2.54-20.77,4.6-23.31,23.3C819.08,164.19,817,162.13,798.32,159.59Z"/><path class="cls-19" d="M1476.15,832.35c21.89-3,24.31-5.39,27.29-27.29,3,21.9,5.39,24.31,27.28,27.29-21.89,3-24.31,5.39-27.28,27.29C1500.46,837.74,1498,835.33,1476.15,832.35Z"/><circle class="cls-20" cx="462.13" cy="544.58" r="86.93"/><path class="cls-21" d="M2480.26,627.46c12-1.63,13.33-3,15-15,1.64,12,3,13.33,15,15-12,1.64-13.33,3-15,15C2493.59,630.42,2492.27,629.1,2480.26,627.46Z"/><path class="cls-22" d="M2601.91,269.37c12-1.63,13.33-3,15-15,1.64,12,3,13.33,15,15-12,1.64-13.33,3-15,15C2615.24,272.33,2613.92,271,2601.91,269.37Z"/><circle class="cls-23" cx="857.05" cy="667.82" r="66.6" transform="translate(-13.85 18.16) rotate(-1.2)"/><path class="cls-24" d="M2219.11,689c39.74-2.57,41.83-4.66,44.41-44.4,2.57,39.74,4.66,41.83,44.4,44.4-39.74,2.58-41.83,4.66-44.4,44.4C2260.94,693.68,2258.85,691.6,2219.11,689Z"/><path class="cls-25" d="M1157,793.14c26.72-3.63,29.67-6.58,33.3-33.3,3.64,26.72,6.58,29.67,33.3,33.3-26.72,3.63-29.66,6.58-33.3,33.3C1186.69,799.72,1183.74,796.77,1157,793.14Z"/><path class="cls-26" d="M208.17,417.94c19.51-2.65,21.66-4.8,24.32-24.32,2.65,19.52,4.8,21.67,24.32,24.32-19.52,2.66-21.67,4.81-24.32,24.32C229.83,422.75,227.68,420.6,208.17,417.94Z"/><path class="cls-27" d="M2545.78,578.08c41.82-5.69,46.43-10.3,52.12-52.13,5.69,41.83,10.3,46.44,52.13,52.13-41.83,5.68-46.44,10.29-52.13,52.11C2592.21,588.37,2587.6,583.76,2545.78,578.08Z"/><path class="cls-28" d="M1196.34,569.55c12-1.63,13.34-3,15-15,1.63,12,3,13.34,15,15-12,1.63-13.34,3-15,15C1209.68,572.51,1208.35,571.18,1196.34,569.55Z"/><circle class="cls-29" cx="2147.93" cy="776.53" r="115.58"/><path class="cls-30" d="M1881.46,259.75c29.32-4,32.55-7.22,36.54-36.54,4,29.32,7.21,32.55,36.53,36.54-29.32,4-32.55,7.22-36.53,36.53C1914,267,1910.78,263.73,1881.46,259.75Z"/><circle class="cls-31" cx="1953.99" cy="197.66" r="20.53" transform="translate(1276.99 2041.25) rotate(-75.61)"/><path class="cls-32" d="M635.28,291.29c13.36-1.82,14.83-3.29,16.65-16.65,1.81,13.36,3.29,14.83,16.64,16.65-13.35,1.81-14.83,3.28-16.64,16.64C650.11,294.57,648.64,293.1,635.28,291.29Z"/><circle class="cls-33" cx="1906.33" cy="117.93" r="75.95"/><circle class="cls-34" cx="2514.05" cy="202.65" r="87.85" transform="matrix(1, -0.01, 0.01, 1, -1.69, 22.24)"/><path class="cls-35" d="M2427.87,146.59c21-2.86,23.34-5.18,26.19-26.19,2.86,21,5.18,23.33,26.2,26.19-21,2.86-23.34,5.18-26.2,26.19C2451.21,151.77,2448.89,149.45,2427.87,146.59Z"/><circle class="cls-36" cx="104.8" cy="544.58" r="39.48" transform="translate(-97.1 28.06) rotate(-10.46)"/><circle class="cls-37" cx="1681.79" cy="627.98" r="53.15"/><path class="cls-38" d="M2309.85,623.22c12-1.63,13.34-3,15-15,1.63,12,3,13.33,15,15-12,1.64-13.34,3-15,15C2323.19,626.18,2321.86,624.86,2309.85,623.22Z"/><path class="cls-39" d="M2204.15,608.26c6-.82,6.66-1.48,7.48-7.49.82,6,1.48,6.67,7.48,7.49-6,.81-6.66,1.47-7.48,7.48C2210.81,609.73,2210.15,609.07,2204.15,608.26Z"/><path class="cls-40" d="M1544.11,774.24c9.79-1.34,10.87-2.42,12.21-12.21,1.33,9.79,2.41,10.87,12.2,12.21-9.79,1.33-10.87,2.41-12.2,12.2C1555,776.65,1553.9,775.57,1544.11,774.24Z"/><path class="cls-41" d="M1446.22,480.35c6.59-.9,7.32-1.62,8.22-8.22.89,6.6,1.62,7.32,8.21,8.22-6.59.9-7.32,1.62-8.21,8.22C1453.54,482,1452.81,481.25,1446.22,480.35Z"/><path class="cls-42" d="M962.86,678.15c6.75-.92,7.49-1.66,8.41-8.41.91,6.75,1.66,7.49,8.4,8.41-6.74.91-7.49,1.66-8.4,8.4C970.35,679.81,969.61,679.06,962.86,678.15Z"/><path class="cls-43" d="M56.87,407.93c8-1.09,8.89-2,10-10,1.09,8,2,8.89,10,10-8,1.08-8.89,2-10,10C65.76,409.9,64.88,409,56.87,407.93Z"/><path class="cls-44" d="M2310.15,354.59c12-1.64,13.33-3,15-15,1.64,12,3,13.33,15,15-12,1.63-13.33,3-15,15C2323.48,357.55,2322.16,356.22,2310.15,354.59Z"/><path class="cls-45" d="M2232.69,305.48c6.53-.89,7.25-1.61,8.14-8.14.89,6.53,1.61,7.25,8.14,8.14-6.53.89-7.25,1.61-8.14,8.14C2239.94,307.09,2239.22,306.37,2232.69,305.48Z"/><path class="cls-46" d="M2716.76,217.62c12-1.63,13.34-3,15-15,1.64,12,3,13.34,15,15-12,1.63-13.33,3-15,15C2730.1,220.58,2728.77,219.25,2716.76,217.62Z"/><path class="cls-47" d="M2677.25,174c6-.82,6.66-1.48,7.48-7.49.82,6,1.48,6.67,7.48,7.49-6,.81-6.66,1.47-7.48,7.48C2683.91,175.5,2683.25,174.84,2677.25,174Z"/></g></g></svg>